<svg width="678" height="594" viewBox="0 0 678 594" fill="none" xmlns="http://www.w3.org/2000/svg">
<g opacity="0.8">
<path d="M580.872 121.626H302.113C299.07 121.626 296.604 124.095 296.604 127.141V328.232C296.604 331.278 299.07 333.747 302.113 333.747H580.872C583.915 333.747 586.381 331.278 586.381 328.232V127.141C586.381 124.095 583.915 121.626 580.872 121.626Z" fill="white"/>
<path d="M581.237 334.74H301.748C300.123 334.738 298.564 334.09 297.415 332.94C296.265 331.789 295.619 330.228 295.616 328.601V126.777C295.619 125.149 296.265 123.589 297.415 122.438C298.564 121.287 300.123 120.639 301.748 120.637H581.241C582.866 120.639 584.425 121.287 585.574 122.438C586.724 123.589 587.37 125.149 587.372 126.777V328.601C587.37 330.229 586.723 331.79 585.573 332.941C584.422 334.092 582.863 334.739 581.237 334.74ZM301.748 122.619C300.647 122.62 299.591 123.058 298.813 123.838C298.034 124.617 297.596 125.674 297.595 126.777V328.601C297.596 329.703 298.034 330.76 298.813 331.54C299.591 332.319 300.647 332.758 301.748 332.759H581.241C582.342 332.758 583.397 332.319 584.176 331.54C584.955 330.76 585.392 329.703 585.394 328.601V126.777C585.392 125.674 584.955 124.617 584.176 123.838C583.397 123.058 582.342 122.62 581.241 122.619H301.748Z" fill="#262424"/>
<path d="M445.166 161.093H326.334C323.994 161.093 322.097 162.992 322.097 165.336V246.154C322.097 248.497 323.994 250.396 326.334 250.396H445.166C447.507 250.396 449.404 248.497 449.404 246.154V165.336C449.404 162.992 447.507 161.093 445.166 161.093Z" fill="black"/>
<path d="M441.768 168.102H329.733V243.387H441.768V168.102Z" fill="white"/>
<path d="M441.764 232.933V243.387H329.733V219.627L350.119 199.219C350.854 198.482 351.727 197.898 352.687 197.499C353.648 197.101 354.677 196.895 355.717 196.895C356.757 196.895 357.786 197.101 358.747 197.499C359.707 197.898 360.58 198.482 361.315 199.219L391.227 229.169L409.025 211.349C409.76 210.613 410.632 210.028 411.593 209.63C412.553 209.231 413.583 209.026 414.623 209.026C415.662 209.026 416.692 209.231 417.652 209.63C418.613 210.028 419.485 210.613 420.22 211.349L441.764 232.933Z" fill="#88C0C2"/>
<path d="M393.308 205.914C398.061 205.914 401.914 202.056 401.914 197.297C401.914 192.538 398.061 188.68 393.308 188.68C388.555 188.68 384.701 192.538 384.701 197.297C384.701 202.056 388.555 205.914 393.308 205.914Z" fill="#88C0C2"/>
<path d="M556.651 161.093H468.676C466.336 161.093 464.438 162.992 464.438 165.336V246.154C464.438 248.497 466.336 250.396 468.676 250.396H556.651C558.991 250.396 560.888 248.497 560.888 246.154V165.336C560.888 162.992 558.991 161.093 556.651 161.093Z" fill="black"/>
<path d="M541.311 180.606H484.016C482.261 180.606 480.838 182.03 480.838 183.788V185.213C480.838 186.971 482.261 188.396 484.016 188.396H541.311C543.066 188.396 544.489 186.971 544.489 185.213V183.788C544.489 182.03 543.066 180.606 541.311 180.606Z" fill="white"/>
<path d="M541.311 201.85H484.016C482.261 201.85 480.838 203.274 480.838 205.032V206.457C480.838 208.215 482.261 209.64 484.016 209.64H541.311C543.066 209.64 544.489 208.215 544.489 206.457V205.032C544.489 203.274 543.066 201.85 541.311 201.85Z" fill="white"/>
<path d="M541.311 223.094H484.016C482.261 223.094 480.838 224.518 480.838 226.276V227.701C480.838 229.459 482.261 230.884 484.016 230.884H541.311C543.066 230.884 544.489 229.459 544.489 227.701V226.276C544.489 224.518 543.066 223.094 541.311 223.094Z" fill="white"/>
<path d="M552.083 279.821H395.443C392.109 279.821 389.405 282.527 389.405 285.865C389.405 289.203 392.109 291.909 395.443 291.909H552.083C555.418 291.909 558.121 289.203 558.121 285.865C558.121 282.527 555.418 279.821 552.083 279.821Z" fill="black"/>
<path d="M552.083 299.966H395.443C392.109 299.966 389.405 302.672 389.405 306.01C389.405 309.348 392.109 312.054 395.443 312.054H552.083C555.418 312.054 558.121 309.348 558.121 306.01C558.121 302.672 555.418 299.966 552.083 299.966Z" fill="black"/>
<path d="M375.235 274.84H338.919C337.312 274.84 336.008 276.145 336.008 277.754V314.116C336.008 315.726 337.312 317.031 338.919 317.031H375.235C376.843 317.031 378.146 315.726 378.146 314.116V277.754C378.146 276.145 376.843 274.84 375.235 274.84Z" fill="#88C0C2"/>
<path d="M374.103 313.641C373.974 313.641 373.845 313.616 373.725 313.566C373.605 313.517 373.496 313.444 373.404 313.352L338.686 278.59C338.501 278.405 338.397 278.153 338.397 277.89C338.397 277.628 338.501 277.376 338.686 277.19C338.872 277.004 339.123 276.9 339.386 276.9C339.648 276.9 339.899 277.004 340.085 277.19L374.803 311.952C374.941 312.09 375.035 312.267 375.074 312.459C375.112 312.651 375.092 312.85 375.017 313.031C374.943 313.211 374.816 313.366 374.653 313.475C374.49 313.583 374.299 313.641 374.103 313.641Z" fill="white"/>
<path d="M339.39 313.641C339.193 313.643 338.999 313.586 338.835 313.477C338.67 313.368 338.542 313.212 338.466 313.029C338.391 312.846 338.372 312.645 338.412 312.452C338.452 312.258 338.549 312.081 338.691 311.943L373.408 277.182C373.5 277.09 373.609 277.017 373.729 276.967C373.849 276.917 373.978 276.892 374.108 276.892C374.237 276.892 374.366 276.917 374.486 276.967C374.606 277.017 374.715 277.09 374.807 277.182C374.899 277.274 374.971 277.383 375.021 277.503C375.071 277.623 375.096 277.752 375.096 277.882C375.096 278.012 375.071 278.14 375.021 278.261C374.971 278.381 374.899 278.49 374.807 278.582L340.089 313.344C339.998 313.437 339.889 313.511 339.769 313.562C339.649 313.613 339.52 313.64 339.39 313.641Z" fill="white"/>
<path d="M586.995 105.643H295.989C292.79 105.643 290.197 108.24 290.197 111.443V132.895C290.197 136.098 292.79 138.695 295.989 138.695H586.995C590.195 138.695 592.788 136.098 592.788 132.895V111.443C592.788 108.24 590.195 105.643 586.995 105.643Z" fill="white"/>
<path d="M587.381 139.683H295.604C293.909 139.681 292.284 139.006 291.085 137.806C289.886 136.605 289.212 134.978 289.209 133.281V111.057C289.212 109.359 289.886 107.732 291.085 106.532C292.284 105.332 293.909 104.657 295.604 104.654H587.381C589.076 104.657 590.702 105.332 591.9 106.532C593.099 107.732 593.773 109.359 593.776 111.057V133.281C593.773 134.978 593.099 136.605 591.9 137.806C590.702 139.006 589.076 139.681 587.381 139.683ZM295.604 106.631C294.432 106.633 293.308 107.099 292.48 107.929C291.651 108.759 291.185 109.883 291.184 111.057V133.281C291.185 134.454 291.651 135.579 292.48 136.409C293.308 137.238 294.432 137.705 295.604 137.706H587.381C588.552 137.704 589.675 137.237 590.502 136.407C591.33 135.578 591.795 134.453 591.797 133.281V111.057C591.795 109.884 591.33 108.76 590.502 107.93C589.675 107.101 588.552 106.634 587.381 106.631H295.604Z" fill="#262424"/>
<path d="M303.922 129.212C307.807 129.212 310.956 126.059 310.956 122.169C310.956 118.279 307.807 115.126 303.922 115.126C300.037 115.126 296.888 118.279 296.888 122.169C296.888 126.059 300.037 129.212 303.922 129.212Z" fill="#88C0C2"/>
<path d="M335.364 129.212C339.249 129.212 342.398 126.059 342.398 122.169C342.398 118.279 339.249 115.126 335.364 115.126C331.479 115.126 328.33 118.279 328.33 122.169C328.33 126.059 331.479 129.212 335.364 129.212Z" fill="#378595"/>
<path d="M366.802 129.212C370.687 129.212 373.836 126.059 373.836 122.169C373.836 118.279 370.687 115.126 366.802 115.126C362.917 115.126 359.768 118.279 359.768 122.169C359.768 126.059 362.917 129.212 366.802 129.212Z" fill="#0E2125"/>
<path d="M450.137 485.171H445.052C444.771 485.171 444.501 485.059 444.303 484.86C444.104 484.661 443.992 484.391 443.992 484.11C443.992 483.829 444.104 483.559 444.303 483.36C444.501 483.161 444.771 483.049 445.052 483.049H450.137C450.418 483.049 450.687 483.161 450.886 483.36C451.084 483.559 451.196 483.829 451.196 484.11C451.196 484.391 451.084 484.661 450.886 484.86C450.687 485.059 450.418 485.171 450.137 485.171ZM439.967 485.171H434.882C434.601 485.171 434.331 485.059 434.133 484.86C433.934 484.661 433.822 484.391 433.822 484.11C433.822 483.829 433.934 483.559 434.133 483.36C434.331 483.161 434.601 483.049 434.882 483.049H439.967C440.248 483.049 440.517 483.161 440.716 483.36C440.914 483.559 441.026 483.829 441.026 484.11C441.026 484.391 440.914 484.661 440.716 484.86C440.517 485.059 440.248 485.171 439.967 485.171ZM429.797 485.171H424.712C424.431 485.171 424.161 485.059 423.963 484.86C423.764 484.661 423.652 484.391 423.652 484.11C423.652 483.829 423.764 483.559 423.963 483.36C424.161 483.161 424.431 483.049 424.712 483.049H429.797C430.078 483.049 430.347 483.161 430.546 483.36C430.744 483.559 430.856 483.829 430.856 484.11C430.856 484.391 430.744 484.661 430.546 484.86C430.347 485.059 430.078 485.171 429.797 485.171ZM419.627 485.171H414.542C414.261 485.171 413.991 485.059 413.793 484.86C413.594 484.661 413.482 484.391 413.482 484.11C413.482 483.829 413.594 483.559 413.793 483.36C413.991 483.161 414.261 483.049 414.542 483.049H419.627C419.908 483.049 420.177 483.161 420.376 483.36C420.575 483.559 420.686 483.829 420.686 484.11C420.686 484.391 420.575 484.661 420.376 484.86C420.177 485.059 419.908 485.171 419.627 485.171ZM409.457 485.171H404.372C404.091 485.171 403.821 485.059 403.623 484.86C403.424 484.661 403.312 484.391 403.312 484.11C403.312 483.829 403.424 483.559 403.623 483.36C403.821 483.161 404.091 483.049 404.372 483.049H409.457C409.738 483.049 410.007 483.161 410.206 483.36C410.405 483.559 410.516 483.829 410.516 484.11C410.516 484.391 410.405 484.661 410.206 484.86C410.007 485.059 409.738 485.171 409.457 485.171ZM399.287 485.171H394.202C393.921 485.171 393.651 485.059 393.453 484.86C393.254 484.661 393.142 484.391 393.142 484.11C393.142 483.829 393.254 483.559 393.453 483.36C393.651 483.161 393.921 483.049 394.202 483.049H399.287C399.568 483.049 399.837 483.161 400.036 483.36C400.235 483.559 400.346 483.829 400.346 484.11C400.346 484.391 400.235 484.661 400.036 484.86C399.837 485.059 399.568 485.171 399.287 485.171ZM389.117 485.171H384.032C383.751 485.171 383.481 485.059 383.283 484.86C383.084 484.661 382.972 484.391 382.972 484.11C382.972 483.829 383.084 483.559 383.283 483.36C383.481 483.161 383.751 483.049 384.032 483.049H389.117C389.398 483.049 389.667 483.161 389.866 483.36C390.065 483.559 390.176 483.829 390.176 484.11C390.176 484.391 390.065 484.661 389.866 484.86C389.667 485.059 389.398 485.171 389.117 485.171ZM378.947 485.171H373.862C373.581 485.171 373.311 485.059 373.113 484.86C372.914 484.661 372.802 484.391 372.802 484.11C372.802 483.829 372.914 483.559 373.113 483.36C373.311 483.161 373.581 483.049 373.862 483.049H378.947C379.228 483.049 379.497 483.161 379.696 483.36C379.895 483.559 380.006 483.829 380.006 484.11C380.006 484.391 379.895 484.661 379.696 484.86C379.497 485.059 379.228 485.171 378.947 485.171ZM368.777 485.171H363.692C363.411 485.171 363.141 485.059 362.943 484.86C362.744 484.661 362.632 484.391 362.632 484.11C362.632 483.829 362.744 483.559 362.943 483.36C363.141 483.161 363.411 483.049 363.692 483.049H368.777C369.058 483.049 369.327 483.161 369.526 483.36C369.725 483.559 369.836 483.829 369.836 484.11C369.836 484.391 369.725 484.661 369.526 484.86C369.327 485.059 369.058 485.171 368.777 485.171ZM358.607 485.171H353.522C353.241 485.171 352.971 485.059 352.773 484.86C352.574 484.661 352.462 484.391 352.462 484.11C352.462 483.829 352.574 483.559 352.773 483.36C352.971 483.161 353.241 483.049 353.522 483.049H358.607C358.888 483.049 359.157 483.161 359.356 483.36C359.555 483.559 359.666 483.829 359.666 484.11C359.666 484.391 359.555 484.661 359.356 484.86C359.157 485.059 358.888 485.171 358.607 485.171ZM348.437 485.171H347.818C347.537 485.171 347.268 485.059 347.069 484.86C346.87 484.661 346.759 484.391 346.759 484.11V479.019C346.759 478.737 346.87 478.467 347.069 478.268C347.268 478.07 347.537 477.958 347.818 477.958C348.099 477.958 348.369 478.07 348.567 478.268C348.766 478.467 348.878 478.737 348.878 479.019V483.147C349.097 483.248 349.275 483.421 349.382 483.637C349.49 483.853 349.52 484.1 349.469 484.336C349.417 484.572 349.287 484.783 349.099 484.935C348.912 485.087 348.678 485.17 348.437 485.171ZM455.082 485.031C454.801 485.031 454.531 484.919 454.333 484.72C454.134 484.521 454.022 484.251 454.022 483.97V478.879C454.022 478.597 454.134 478.327 454.333 478.128C454.531 477.93 454.801 477.818 455.082 477.818C455.363 477.818 455.632 477.93 455.831 478.128C456.03 478.327 456.141 478.597 456.141 478.879V483.97C456.141 484.251 456.03 484.521 455.831 484.72C455.632 484.919 455.363 485.031 455.082 485.031ZM347.818 474.988C347.537 474.988 347.268 474.876 347.069 474.677C346.87 474.478 346.759 474.208 346.759 473.927V468.836C346.759 468.554 346.87 468.285 347.069 468.086C347.268 467.887 347.537 467.775 347.818 467.775C348.099 467.775 348.369 467.887 348.567 468.086C348.766 468.285 348.878 468.554 348.878 468.836V473.927C348.878 474.208 348.766 474.478 348.567 474.677C348.369 474.876 348.099 474.988 347.818 474.988ZM455.082 474.848C454.801 474.848 454.531 474.736 454.333 474.537C454.134 474.338 454.022 474.068 454.022 473.787V468.696C454.022 468.414 454.134 468.145 454.333 467.946C454.531 467.747 454.801 467.635 455.082 467.635C455.363 467.635 455.632 467.747 455.831 467.946C456.03 468.145 456.141 468.414 456.141 468.696V473.787C456.141 474.068 456.03 474.338 455.831 474.537C455.632 474.736 455.363 474.848 455.082 474.848ZM347.818 464.805C347.537 464.805 347.268 464.693 347.069 464.494C346.87 464.295 346.759 464.026 346.759 463.744V458.653C346.759 458.371 346.87 458.102 347.069 457.903C347.268 457.704 347.537 457.592 347.818 457.592C348.099 457.592 348.369 457.704 348.567 457.903C348.766 458.102 348.878 458.371 348.878 458.653V463.744C348.878 464.026 348.766 464.295 348.567 464.494C348.369 464.693 348.099 464.805 347.818 464.805ZM455.082 464.665C454.801 464.665 454.531 464.553 454.333 464.354C454.134 464.155 454.022 463.886 454.022 463.604V458.513C454.022 458.232 454.134 457.962 454.333 457.763C454.531 457.564 454.801 457.452 455.082 457.452C455.363 457.452 455.632 457.564 455.831 457.763C456.03 457.962 456.141 458.232 456.141 458.513V463.604C456.141 463.886 456.03 464.155 455.831 464.354C455.632 464.553 455.363 464.665 455.082 464.665ZM347.818 454.622C347.537 454.622 347.268 454.51 347.069 454.311C346.87 454.113 346.759 453.843 346.759 453.561V448.47C346.759 448.189 346.87 447.919 347.069 447.72C347.268 447.521 347.537 447.409 347.818 447.409C348.099 447.409 348.369 447.521 348.567 447.72C348.766 447.919 348.878 448.189 348.878 448.47V453.561C348.878 453.843 348.766 454.113 348.567 454.311C348.369 454.51 348.099 454.622 347.818 454.622ZM455.082 454.482C454.801 454.482 454.531 454.37 454.333 454.171C454.134 453.972 454.022 453.703 454.022 453.421V448.33C454.022 448.049 454.134 447.779 454.333 447.58C454.531 447.381 454.801 447.269 455.082 447.269C455.363 447.269 455.632 447.381 455.831 447.58C456.03 447.779 456.141 448.049 456.141 448.33V453.421C456.141 453.703 456.03 453.972 455.831 454.171C455.632 454.37 455.363 454.482 455.082 454.482ZM347.818 444.439C347.537 444.439 347.268 444.328 347.069 444.129C346.87 443.93 346.759 443.66 346.759 443.379V438.287C346.759 438.006 346.87 437.736 347.069 437.537C347.268 437.338 347.537 437.226 347.818 437.226C348.099 437.226 348.369 437.338 348.567 437.537C348.766 437.736 348.878 438.006 348.878 438.287V443.379C348.878 443.66 348.766 443.93 348.567 444.129C348.369 444.328 348.099 444.439 347.818 444.439ZM455.082 444.299C454.801 444.299 454.531 444.187 454.333 443.989C454.134 443.79 454.022 443.52 454.022 443.239V438.147C454.022 437.866 454.134 437.596 454.333 437.397C454.531 437.198 454.801 437.086 455.082 437.086C455.363 437.086 455.632 437.198 455.831 437.397C456.03 437.596 456.141 437.866 456.141 438.147V443.239C456.141 443.52 456.03 443.79 455.831 443.989C455.632 444.187 455.363 444.299 455.082 444.299ZM347.818 434.256C347.537 434.256 347.268 434.145 347.069 433.946C346.87 433.747 346.759 433.477 346.759 433.196V428.104C346.759 427.823 346.87 427.553 347.069 427.354C347.268 427.155 347.537 427.044 347.818 427.044C348.099 427.044 348.369 427.155 348.567 427.354C348.766 427.553 348.878 427.823 348.878 428.104V433.196C348.878 433.477 348.766 433.747 348.567 433.946C348.369 434.145 348.099 434.256 347.818 434.256ZM455.082 434.116C454.801 434.116 454.531 434.005 454.333 433.806C454.134 433.607 454.022 433.337 454.022 433.056V427.964C454.022 427.683 454.134 427.413 454.333 427.214C454.531 427.015 454.801 426.904 455.082 426.904C455.363 426.904 455.632 427.015 455.831 427.214C456.03 427.413 456.141 427.683 456.141 427.964V433.056C456.141 433.337 456.03 433.607 455.831 433.806C455.632 434.005 455.363 434.116 455.082 434.116ZM347.818 424.074C347.537 424.074 347.268 423.962 347.069 423.763C346.87 423.564 346.759 423.294 346.759 423.013V417.921C346.759 417.64 346.87 417.37 347.069 417.171C347.268 416.972 347.537 416.861 347.818 416.861C348.099 416.861 348.369 416.972 348.567 417.171C348.766 417.37 348.878 417.64 348.878 417.921V423.013C348.878 423.294 348.766 423.564 348.567 423.763C348.369 423.962 348.099 424.074 347.818 424.074ZM455.082 423.934C454.801 423.934 454.531 423.822 454.333 423.623C454.134 423.424 454.022 423.154 454.022 422.873V417.781C454.022 417.5 454.134 417.23 454.333 417.031C454.531 416.832 454.801 416.721 455.082 416.721C455.363 416.721 455.632 416.832 455.831 417.031C456.03 417.23 456.141 417.5 456.141 417.781V422.873C456.141 423.154 456.03 423.424 455.831 423.623C455.632 423.822 455.363 423.934 455.082 423.934ZM347.818 413.891C347.537 413.891 347.268 413.779 347.069 413.58C346.87 413.381 346.759 413.111 346.759 412.83V407.739C346.759 407.457 346.87 407.187 347.069 406.988C347.268 406.79 347.537 406.678 347.818 406.678C348.099 406.678 348.369 406.79 348.567 406.988C348.766 407.187 348.878 407.457 348.878 407.739V412.83C348.878 413.111 348.766 413.381 348.567 413.58C348.369 413.779 348.099 413.891 347.818 413.891ZM455.082 413.751C454.801 413.751 454.531 413.639 454.333 413.44C454.134 413.241 454.022 412.971 454.022 412.69V407.598C454.022 407.317 454.134 407.047 454.333 406.848C454.531 406.65 454.801 406.538 455.082 406.538C455.363 406.538 455.632 406.65 455.831 406.848C456.03 407.047 456.141 407.317 456.141 407.598V412.69C456.141 412.971 456.03 413.241 455.831 413.44C455.632 413.639 455.363 413.751 455.082 413.751ZM347.818 403.708C347.537 403.708 347.268 403.596 347.069 403.397C346.87 403.198 346.759 402.928 346.759 402.647V397.556C346.759 397.274 346.87 397.005 347.069 396.806C347.268 396.607 347.537 396.495 347.818 396.495C348.099 396.495 348.369 396.607 348.567 396.806C348.766 397.005 348.878 397.274 348.878 397.556V402.647C348.878 402.928 348.766 403.198 348.567 403.397C348.369 403.596 348.099 403.708 347.818 403.708ZM455.082 403.568C454.801 403.568 454.531 403.456 454.333 403.257C454.134 403.058 454.022 402.788 454.022 402.507V397.416C454.022 397.134 454.134 396.865 454.333 396.666C454.531 396.467 454.801 396.355 455.082 396.355C455.363 396.355 455.632 396.467 455.831 396.666C456.03 396.865 456.141 397.134 456.141 397.416V402.507C456.141 402.788 456.03 403.058 455.831 403.257C455.632 403.456 455.363 403.568 455.082 403.568ZM347.818 393.525C347.537 393.525 347.268 393.413 347.069 393.214C346.87 393.015 346.759 392.746 346.759 392.464V387.373C346.759 387.091 346.87 386.822 347.069 386.623C347.268 386.424 347.537 386.312 347.818 386.312C348.099 386.312 348.369 386.424 348.567 386.623C348.766 386.822 348.878 387.091 348.878 387.373V392.464C348.878 392.746 348.766 393.015 348.567 393.214C348.369 393.413 348.099 393.525 347.818 393.525ZM455.082 393.385C454.801 393.385 454.531 393.273 454.333 393.074C454.134 392.875 454.022 392.606 454.022 392.324V387.233C454.022 386.951 454.134 386.682 454.333 386.483C454.531 386.284 454.801 386.172 455.082 386.172C455.363 386.172 455.632 386.284 455.831 386.483C456.03 386.682 456.141 386.951 456.141 387.233V392.324C456.141 392.606 456.03 392.875 455.831 393.074C455.632 393.273 455.363 393.385 455.082 393.385ZM454.772 383.512H449.688C449.407 383.512 449.137 383.4 448.938 383.201C448.74 383.002 448.628 382.732 448.628 382.451C448.628 382.17 448.74 381.9 448.938 381.701C449.137 381.502 449.407 381.39 449.688 381.39H454.772C455.053 381.39 455.323 381.502 455.522 381.701C455.72 381.9 455.832 382.17 455.832 382.451C455.832 382.732 455.72 383.002 455.522 383.201C455.323 383.4 455.053 383.512 454.772 383.512ZM444.603 383.512H439.518C439.237 383.512 438.967 383.4 438.768 383.201C438.57 383.002 438.458 382.732 438.458 382.451C438.458 382.17 438.57 381.9 438.768 381.701C438.967 381.502 439.237 381.39 439.518 381.39H444.603C444.883 381.39 445.153 381.502 445.352 381.701C445.55 381.9 445.662 382.17 445.662 382.451C445.662 382.732 445.55 383.002 445.352 383.201C445.153 383.4 444.883 383.512 444.603 383.512ZM434.433 383.512H429.348C429.067 383.512 428.797 383.4 428.598 383.201C428.4 383.002 428.288 382.732 428.288 382.451C428.288 382.17 428.4 381.9 428.598 381.701C428.797 381.502 429.067 381.39 429.348 381.39H434.433C434.713 381.39 434.983 381.502 435.182 381.701C435.38 381.9 435.492 382.17 435.492 382.451C435.492 382.732 435.38 383.002 435.182 383.201C434.983 383.4 434.713 383.512 434.433 383.512ZM424.263 383.512H419.178C418.897 383.512 418.627 383.4 418.428 383.201C418.23 383.002 418.118 382.732 418.118 382.451C418.118 382.17 418.23 381.9 418.428 381.701C418.627 381.502 418.897 381.39 419.178 381.39H424.263C424.544 381.39 424.813 381.502 425.012 381.701C425.21 381.9 425.322 382.17 425.322 382.451C425.322 382.732 425.21 383.002 425.012 383.201C424.813 383.4 424.544 383.512 424.263 383.512ZM414.093 383.512H409.008C408.727 383.512 408.457 383.4 408.258 383.201C408.06 383.002 407.948 382.732 407.948 382.451C407.948 382.17 408.06 381.9 408.258 381.701C408.457 381.502 408.727 381.39 409.008 381.39H414.093C414.374 381.39 414.643 381.502 414.842 381.701C415.04 381.9 415.152 382.17 415.152 382.451C415.152 382.732 415.04 383.002 414.842 383.201C414.643 383.4 414.374 383.512 414.093 383.512ZM403.923 383.512H398.838C398.557 383.512 398.287 383.4 398.089 383.201C397.89 383.002 397.778 382.732 397.778 382.451C397.778 382.17 397.89 381.9 398.089 381.701C398.287 381.502 398.557 381.39 398.838 381.39H403.923C404.204 381.39 404.473 381.502 404.672 381.701C404.87 381.9 404.982 382.17 404.982 382.451C404.982 382.732 404.87 383.002 404.672 383.201C404.473 383.4 404.204 383.512 403.923 383.512ZM393.753 383.512H388.668C388.387 383.512 388.117 383.4 387.919 383.201C387.72 383.002 387.608 382.732 387.608 382.451C387.608 382.17 387.72 381.9 387.919 381.701C388.117 381.502 388.387 381.39 388.668 381.39H393.753C394.034 381.39 394.303 381.502 394.502 381.701C394.7 381.9 394.812 382.17 394.812 382.451C394.812 382.732 394.7 383.002 394.502 383.201C394.303 383.4 394.034 383.512 393.753 383.512ZM383.583 383.512H378.498C378.217 383.512 377.947 383.4 377.749 383.201C377.55 383.002 377.438 382.732 377.438 382.451C377.438 382.17 377.55 381.9 377.749 381.701C377.947 381.502 378.217 381.39 378.498 381.39H383.583C383.864 381.39 384.133 381.502 384.332 381.701C384.53 381.9 384.642 382.17 384.642 382.451C384.642 382.732 384.53 383.002 384.332 383.201C384.133 383.4 383.864 383.512 383.583 383.512ZM373.413 383.512H368.328C368.047 383.512 367.777 383.4 367.579 383.201C367.38 383.002 367.268 382.732 367.268 382.451C367.268 382.17 367.38 381.9 367.579 381.701C367.777 381.502 368.047 381.39 368.328 381.39H373.413C373.694 381.39 373.963 381.502 374.162 381.701C374.36 381.9 374.472 382.17 374.472 382.451C374.472 382.732 374.36 383.002 374.162 383.201C373.963 383.4 373.694 383.512 373.413 383.512ZM363.243 383.512H358.158C357.877 383.512 357.607 383.4 357.409 383.201C357.21 383.002 357.098 382.732 357.098 382.451C357.098 382.17 357.21 381.9 357.409 381.701C357.607 381.502 357.877 381.39 358.158 381.39H363.243C363.524 381.39 363.793 381.502 363.992 381.701C364.19 381.9 364.302 382.17 364.302 382.451C364.302 382.732 364.19 383.002 363.992 383.201C363.793 383.4 363.524 383.512 363.243 383.512ZM353.073 383.512H347.988C347.707 383.512 347.437 383.4 347.239 383.201C347.04 383.002 346.928 382.732 346.928 382.451C346.928 382.17 347.04 381.9 347.239 381.701C347.437 381.502 347.707 381.39 347.988 381.39H353.073C353.354 381.39 353.623 381.502 353.822 381.701C354.02 381.9 354.132 382.17 354.132 382.451C354.132 382.732 354.02 383.002 353.822 383.201C353.623 383.4 353.354 383.512 353.073 383.512Z" fill="#262424"/>
<path d="M440.848 392.464H362.056C359.716 392.464 357.819 394.364 357.819 396.707V469.858C357.819 472.202 359.716 474.101 362.056 474.101H440.848C443.189 474.101 445.086 472.202 445.086 469.858V396.707C445.086 394.364 443.189 392.464 440.848 392.464Z" fill="#676563"/>
<path d="M439.31 398.112H363.594V468.45H439.31V398.112Z" fill="white"/>
<path d="M439.31 461.385V468.45H363.577V452.39L377.354 438.597C377.85 438.1 378.44 437.705 379.089 437.436C379.738 437.167 380.433 437.028 381.135 437.028C381.838 437.028 382.533 437.167 383.182 437.436C383.831 437.705 384.421 438.1 384.917 438.597L405.13 458.835L417.156 446.794C417.653 446.297 418.243 445.902 418.892 445.633C419.54 445.364 420.236 445.225 420.938 445.225C421.641 445.225 422.336 445.364 422.985 445.633C423.634 445.902 424.224 446.297 424.72 446.794L439.31 461.385Z" fill="#88C0C2"/>
<path d="M406.563 443.124C409.774 443.124 412.377 440.518 412.377 437.303C412.377 434.088 409.774 431.482 406.563 431.482C403.352 431.482 400.749 434.088 400.749 437.303C400.749 440.518 403.352 443.124 406.563 443.124Z" fill="#88C0C2"/>
<path d="M351.848 376.757H343.792C342.875 376.757 342.131 377.502 342.131 378.42V386.486C342.131 387.405 342.875 388.149 343.792 388.149H351.848C352.765 388.149 353.509 387.405 353.509 386.486V378.42C353.509 377.502 352.765 376.757 351.848 376.757Z" fill="#88C0C2"/>
<path d="M404.736 376.757H396.681C395.763 376.757 395.02 377.502 395.02 378.42V386.486C395.02 387.405 395.763 388.149 396.681 388.149H404.736C405.654 388.149 406.398 387.405 406.398 386.486V378.42C406.398 377.502 405.654 376.757 404.736 376.757Z" fill="#88C0C2"/>
<path d="M457.629 376.757H449.573C448.656 376.757 447.912 377.502 447.912 378.42V386.486C447.912 387.405 448.656 388.149 449.573 388.149H457.629C458.546 388.149 459.29 387.405 459.29 386.486V378.42C459.29 377.502 458.546 376.757 457.629 376.757Z" fill="#88C0C2"/>
<path d="M351.848 478.412H343.792C342.875 478.412 342.131 479.157 342.131 480.075V488.141C342.131 489.059 342.875 489.804 343.792 489.804H351.848C352.765 489.804 353.509 489.059 353.509 488.141V480.075C353.509 479.157 352.765 478.412 351.848 478.412Z" fill="#88C0C2"/>
<path d="M404.736 478.412H396.681C395.763 478.412 395.02 479.157 395.02 480.075V488.141C395.02 489.059 395.763 489.804 396.681 489.804H404.736C405.654 489.804 406.398 489.059 406.398 488.141V480.075C406.398 479.157 405.654 478.412 404.736 478.412Z" fill="#88C0C2"/>
<path d="M457.629 478.412H449.573C448.656 478.412 447.912 479.157 447.912 480.075V488.141C447.912 489.059 448.656 489.804 449.573 489.804H457.629C458.546 489.804 459.29 489.059 459.29 488.141V480.075C459.29 479.157 458.546 478.412 457.629 478.412Z" fill="#88C0C2"/>
<path d="M351.848 427.583H343.792C342.875 427.583 342.131 428.327 342.131 429.246V437.311C342.131 438.23 342.875 438.974 343.792 438.974H351.848C352.765 438.974 353.509 438.23 353.509 437.311V429.246C353.509 428.327 352.765 427.583 351.848 427.583Z" fill="#88C0C2"/>
<path d="M457.629 427.583H449.573C448.656 427.583 447.912 428.327 447.912 429.246V437.311C447.912 438.23 448.656 438.974 449.573 438.974H457.629C458.546 438.974 459.29 438.23 459.29 437.311V429.246C459.29 428.327 458.546 427.583 457.629 427.583Z" fill="#88C0C2"/>
<path d="M233.516 216.505C253.123 216.505 269.018 200.59 269.018 180.958C269.018 161.326 253.123 145.411 233.516 145.411C213.909 145.411 198.014 161.326 198.014 180.958C198.014 200.59 213.909 216.505 233.516 216.505Z" fill="#88C0C2"/>
<path d="M229.147 193.508C228.646 193.508 228.152 193.382 227.712 193.141C227.273 192.9 226.9 192.553 226.629 192.131C226.358 191.709 226.197 191.225 226.161 190.724C226.125 190.224 226.214 189.722 226.422 189.265L235.181 170.139C235.42 169.616 235.804 169.173 236.287 168.862C236.77 168.551 237.332 168.386 237.906 168.386C238.407 168.387 238.9 168.513 239.34 168.753C239.78 168.994 240.153 169.341 240.424 169.764C240.695 170.186 240.856 170.669 240.892 171.17C240.928 171.671 240.838 172.172 240.631 172.629L231.893 191.722C231.658 192.254 231.273 192.707 230.785 193.024C230.298 193.341 229.728 193.509 229.147 193.508Z" fill="white"/>
<path d="M218.265 180.962L221.744 184.441C222.008 184.706 222.187 185.043 222.26 185.409C222.333 185.776 222.295 186.156 222.152 186.501C222.01 186.847 221.768 187.142 221.458 187.35C221.147 187.558 220.783 187.669 220.409 187.67C219.909 187.667 219.431 187.466 219.079 187.11L213.528 181.556C213.449 181.477 213.386 181.384 213.344 181.281C213.301 181.178 213.279 181.067 213.279 180.956C213.279 180.844 213.301 180.734 213.344 180.631C213.386 180.528 213.449 180.434 213.528 180.355L219.079 174.806C219.432 174.451 219.913 174.251 220.414 174.25C220.787 174.251 221.152 174.362 221.462 174.57C221.772 174.778 222.014 175.073 222.157 175.419C222.299 175.764 222.337 176.144 222.264 176.511C222.191 176.877 222.012 177.214 221.748 177.479L218.265 180.962Z" fill="white"/>
<path d="M248.771 180.962L245.292 184.441C245.028 184.706 244.849 185.043 244.776 185.409C244.703 185.776 244.741 186.156 244.884 186.501C245.026 186.847 245.268 187.142 245.578 187.35C245.889 187.558 246.253 187.669 246.627 187.67C247.127 187.67 247.607 187.472 247.962 187.118L253.513 181.565C253.591 181.486 253.654 181.392 253.697 181.289C253.739 181.186 253.761 181.076 253.761 180.964C253.761 180.853 253.739 180.742 253.697 180.639C253.654 180.536 253.591 180.443 253.513 180.364L247.962 174.806C247.608 174.451 247.128 174.251 246.627 174.25C246.253 174.251 245.889 174.362 245.578 174.57C245.268 174.778 245.026 175.073 244.884 175.419C244.741 175.764 244.703 176.144 244.776 176.511C244.849 176.877 245.028 177.214 245.292 177.479L248.771 180.962Z" fill="white"/>
<path d="M279.12 232.144C279.12 231.978 281.59 220.501 283.01 213.925C283.285 212.651 283.986 211.51 284.999 210.691C286.011 209.872 287.272 209.425 288.574 209.423H300.18L305.63 195.078C305.796 194.638 306.093 194.259 306.479 193.992C306.866 193.724 307.325 193.581 307.795 193.58C308.136 193.581 308.473 193.656 308.781 193.802C309.089 193.947 309.362 194.159 309.579 194.422C309.796 194.685 309.953 194.992 310.038 195.323C310.123 195.653 310.134 195.999 310.071 196.334L306.736 213.904L308.147 215.317C308.885 216.056 309.406 216.983 309.653 217.999C309.9 219.014 309.865 220.078 309.549 221.074L308.426 224.625C307.339 228.065 304.991 230.965 301.854 232.742L292.01 238.321L279.12 232.144Z" fill="white"/>
<path d="M292.01 239.382C291.849 239.39 291.688 239.361 291.54 239.297L278.654 233.115C278.474 233.029 278.322 232.894 278.216 232.725C278.109 232.556 278.052 232.36 278.052 232.161C278.052 231.991 278.052 231.859 281.967 213.717C282.294 212.204 283.127 210.848 284.329 209.875C285.53 208.901 287.028 208.367 288.574 208.362H299.451L304.642 194.701C304.963 193.937 305.552 193.318 306.297 192.959C307.042 192.6 307.893 192.526 308.689 192.752C309.485 192.977 310.171 193.486 310.618 194.182C311.065 194.879 311.243 195.715 311.117 196.533L307.888 213.552L308.901 214.566C309.778 215.44 310.398 216.54 310.692 217.745C310.985 218.949 310.942 220.211 310.566 221.392L309.443 224.944C308.28 228.642 305.754 231.76 302.379 233.663L292.519 239.246C292.363 239.334 292.189 239.38 292.01 239.382ZM280.323 231.537L291.964 237.129L301.341 231.821C304.249 230.181 306.425 227.495 307.426 224.307L308.549 220.756C308.803 219.948 308.831 219.085 308.629 218.262C308.427 217.439 308.004 216.688 307.405 216.089L305.994 214.676C305.872 214.554 305.782 214.404 305.731 214.239C305.68 214.074 305.67 213.899 305.702 213.73L309.037 196.16C309.068 195.862 308.993 195.561 308.825 195.313C308.657 195.064 308.407 194.883 308.119 194.801C307.83 194.719 307.522 194.742 307.249 194.866C306.976 194.99 306.755 195.206 306.625 195.477L301.176 209.822C301.099 210.023 300.964 210.196 300.787 210.318C300.609 210.44 300.399 210.505 300.184 210.505H288.574C287.515 210.509 286.489 210.874 285.665 211.539C284.841 212.205 284.268 213.132 284.04 214.167C282.061 223.357 280.747 229.479 280.319 231.541L280.323 231.537Z" fill="#262424"/>
<path d="M294.248 240.718L275.861 275.107L271.997 282.345C270.285 285.546 267.744 288.227 264.64 290.105L258.941 293.55L212.519 321.609C212.519 321.609 176.225 297.751 207.943 278.756L246.784 265.302L277.345 229.836C277.345 229.836 287.07 227.506 294.248 240.718Z" fill="#B5DCE3"/>
<path d="M287.074 246.569C286.909 246.569 286.747 246.531 286.6 246.457C286.453 246.384 286.325 246.277 286.226 246.145C281.739 240.129 274.903 238.763 274.836 238.746C274.564 238.688 274.326 238.527 274.172 238.295C274.018 238.064 273.961 237.781 274.013 237.508C274.065 237.235 274.223 236.994 274.451 236.835C274.679 236.677 274.96 236.615 275.234 236.662C280.281 237.854 284.763 240.754 287.921 244.872C288.039 245.03 288.111 245.217 288.129 245.413C288.146 245.61 288.109 245.807 288.021 245.983C287.933 246.159 287.798 246.307 287.631 246.411C287.463 246.515 287.27 246.569 287.074 246.569Z" fill="#262424"/>
<path d="M288.489 241.24C289.465 241.24 290.256 240.448 290.256 239.471C290.256 238.494 289.465 237.702 288.489 237.702C287.513 237.702 286.722 238.494 286.722 239.471C286.722 240.448 287.513 241.24 288.489 241.24Z" fill="white"/>
<path d="M288.489 242.301C287.93 242.301 287.384 242.135 286.919 241.824C286.454 241.513 286.092 241.071 285.878 240.554C285.664 240.037 285.608 239.468 285.717 238.919C285.826 238.37 286.095 237.866 286.491 237.47C286.886 237.074 287.39 236.805 287.938 236.695C288.486 236.586 289.054 236.642 289.571 236.857C290.087 237.071 290.529 237.433 290.839 237.899C291.15 238.364 291.316 238.911 291.316 239.471C291.316 240.222 291.018 240.941 290.488 241.472C289.958 242.003 289.239 242.301 288.489 242.301ZM288.489 238.767C288.349 238.767 288.212 238.808 288.096 238.886C287.98 238.964 287.889 239.075 287.835 239.204C287.782 239.334 287.768 239.476 287.795 239.614C287.823 239.751 287.89 239.877 287.989 239.976C288.088 240.075 288.214 240.143 288.351 240.17C288.488 240.198 288.631 240.184 288.76 240.13C288.889 240.076 289 239.985 289.078 239.869C289.155 239.752 289.197 239.615 289.197 239.475C289.197 239.287 289.122 239.107 288.99 238.974C288.857 238.841 288.677 238.767 288.489 238.767Z" fill="#262424"/>
<path d="M275.861 275.107L271.997 282.345C270.285 285.546 267.744 288.227 264.64 290.105L258.941 293.551C258.282 292.973 257.705 292.307 257.225 291.573C253.835 286.44 255.818 279.163 261.636 275.319C266.323 272.23 272.048 272.298 275.861 275.107Z" fill="white"/>
<path d="M116.438 423.976L102.814 472.438H223.664L212.074 422.525L116.438 423.976Z" fill="#378595"/>
<path d="M74.8512 454.474C73.6972 459.585 74.6175 464.945 77.4098 469.377C80.2021 473.809 84.6379 476.948 89.7418 478.106L163.241 494.781H230.478L269.463 474.313C271.702 473.138 273.68 471.519 275.276 469.555C276.871 467.591 278.052 465.323 278.746 462.889C279.44 460.454 279.632 457.904 279.312 455.392C278.992 452.881 278.165 450.461 276.882 448.279C275.233 445.472 272.879 443.145 270.055 441.53C267.23 439.914 264.033 439.065 260.78 439.068H94.1064C89.6273 439.067 85.2812 440.592 81.782 443.392C78.2829 446.191 75.8387 450.099 74.8512 454.474Z" fill="#378595"/>
<path d="M180.267 452.242C180.058 452.242 179.852 452.18 179.678 452.064C179.503 451.947 179.367 451.781 179.287 451.587C179.206 451.393 179.185 451.18 179.227 450.974C179.268 450.768 179.369 450.578 179.517 450.43L180.5 449.446C181.356 448.593 182.034 447.58 182.496 446.463C182.958 445.347 183.194 444.15 183.191 442.941V425.283C183.191 425.001 183.303 424.732 183.502 424.533C183.7 424.334 183.97 424.222 184.251 424.222C184.532 424.222 184.801 424.334 185 424.533C185.198 424.732 185.31 425.001 185.31 425.283V442.954C185.314 444.442 185.023 445.915 184.454 447.29C183.885 448.664 183.05 449.912 181.996 450.96L181.013 451.945C180.813 452.138 180.545 452.245 180.267 452.242Z" fill="#262424"/>
<path d="M179.615 467.839C179.334 467.839 179.064 467.727 178.866 467.528C178.667 467.329 178.555 467.059 178.555 466.778V422.962C178.555 422.681 178.667 422.411 178.866 422.212C179.064 422.013 179.334 421.901 179.615 421.901C179.896 421.901 180.165 422.013 180.364 422.212C180.563 422.411 180.674 422.681 180.674 422.962V466.778C180.674 467.059 180.563 467.329 180.364 467.528C180.165 467.727 179.896 467.839 179.615 467.839Z" fill="#262424"/>
<path d="M91.8477 484.861C91.8385 492.93 94.5416 500.767 99.5218 507.11H134.447L140.6 504.544L160.516 496.232L151.702 480.563L111.522 471.653C109.71 471.249 107.868 470.998 106.014 470.902C101.957 470.688 97.8958 471.211 94.0258 472.446C94.0258 472.446 91.8477 477.525 91.8477 484.861Z" fill="#8FCAD6"/>
<path d="M152.77 489.846C152.77 489.846 131.761 488.612 121.18 487.301C120.659 483.888 119.477 480.611 117.701 477.652C135.524 481.136 151.825 482.947 151.825 482.947L152.77 489.846Z" fill="white"/>
<path d="M152.77 490.899H152.707C152.495 490.899 131.54 489.647 121.048 488.353C120.822 488.325 120.61 488.224 120.445 488.066C120.28 487.908 120.171 487.7 120.133 487.475C119.639 484.197 118.506 481.048 116.798 478.208C116.691 478.033 116.637 477.83 116.643 477.624C116.648 477.418 116.714 477.218 116.831 477.049C116.948 476.88 117.112 476.749 117.303 476.671C117.493 476.594 117.702 476.573 117.904 476.613C135.477 480.045 151.779 481.878 151.944 481.895C152.179 481.922 152.398 482.026 152.567 482.191C152.736 482.356 152.845 482.573 152.876 482.807L153.817 489.698C153.837 489.847 153.825 489.999 153.781 490.144C153.738 490.288 153.664 490.422 153.565 490.535C153.466 490.649 153.344 490.74 153.207 490.803C153.07 490.865 152.921 490.898 152.77 490.899ZM122.087 486.338C131.163 487.407 146.952 488.417 151.546 488.701L150.889 483.906C147.52 483.508 134.278 481.874 119.722 479.12C120.836 481.411 121.631 483.844 122.087 486.35V486.338Z" fill="#262424"/>
<path d="M143.386 499.217C146.188 497.797 147.779 495.298 146.939 493.636C146.099 491.974 143.146 491.778 140.344 493.197C137.541 494.617 135.951 497.116 136.791 498.778C137.631 500.44 140.583 500.637 143.386 499.217Z" fill="white"/>
<path d="M91.8477 484.861C91.8385 492.93 94.5416 500.767 99.5218 507.11H134.447L140.6 504.544L111.989 502.902C111.989 502.902 127.871 483.304 106.446 471.127C106.298 471.046 106.153 470.961 106.022 470.889C101.966 470.675 97.9043 471.198 94.0342 472.434C94.0342 472.434 91.8477 477.525 91.8477 484.861Z" fill="white"/>
<path d="M134.443 508.176H99.5178C99.3533 508.176 99.1911 508.137 99.044 508.064C98.8969 507.99 98.7689 507.883 98.6703 507.751C93.4327 500.933 90.78 493.228 90.78 484.84C90.78 477.372 92.9412 472.213 93.0344 471.997C93.0942 471.857 93.1834 471.731 93.296 471.628C93.4086 471.526 93.542 471.449 93.687 471.403C97.6778 470.124 101.868 469.584 106.052 469.807C106.2 469.816 106.344 469.855 106.476 469.922L106.836 470.117L106.942 470.177C113.468 473.885 117.315 478.662 118.383 484.339C119.803 491.862 115.98 498.863 113.951 501.93L140.647 503.462C140.886 503.476 141.113 503.571 141.291 503.731C141.469 503.891 141.588 504.106 141.628 504.342C141.668 504.578 141.628 504.821 141.513 505.031C141.398 505.241 141.215 505.406 140.994 505.498L134.842 508.065C134.717 508.128 134.582 508.165 134.443 508.176ZM100.043 506.054H134.231L135.926 505.341L111.912 503.962C111.718 503.951 111.53 503.887 111.37 503.776C111.209 503.664 111.083 503.511 111.004 503.332C110.925 503.154 110.897 502.957 110.923 502.764C110.948 502.57 111.027 502.387 111.15 502.236C111.218 502.151 117.989 493.64 116.307 484.747C115.353 479.702 111.853 475.412 105.908 472.052L105.802 471.992L105.705 471.937C102.022 471.768 98.3383 472.227 94.8099 473.295C93.5271 477.015 92.8796 480.925 92.8945 484.861C92.8739 492.522 95.3876 499.974 100.043 506.054Z" fill="#262424"/>
<path d="M153.715 500.292C153.715 500.292 265.721 488.124 276.285 480.716C278.632 478.995 280.542 476.747 281.862 474.152C287.065 464.368 286.218 449.174 275.014 442.462C271.488 440.341 266.941 439.068 261.229 439.068L150.207 477.678C150.207 477.678 142.63 488.977 153.715 500.292Z" fill="#378595"/>
<path d="M153.716 501.353C153.575 501.353 153.436 501.324 153.306 501.27C153.177 501.215 153.06 501.135 152.961 501.035C141.406 489.235 149.279 477.186 149.359 477.067C149.485 476.871 149.671 476.722 149.889 476.643L260.683 438.122C260.815 438.07 260.957 438.046 261.099 438.05C261.242 438.055 261.381 438.088 261.511 438.148C261.64 438.208 261.756 438.293 261.851 438.398C261.947 438.504 262.02 438.628 262.067 438.762C262.113 438.897 262.133 439.04 262.123 439.182C262.113 439.324 262.075 439.463 262.011 439.59C261.947 439.717 261.858 439.83 261.749 439.922C261.64 440.013 261.514 440.082 261.378 440.124L150.936 478.522C149.885 480.291 145.092 489.596 154.114 499.164C160.657 498.442 226.999 491.064 259.178 484.556C259.315 484.528 259.455 484.527 259.592 484.553C259.728 484.58 259.859 484.633 259.975 484.71C260.091 484.787 260.19 484.886 260.268 485.001C260.346 485.117 260.401 485.246 260.428 485.383C260.456 485.519 260.457 485.66 260.431 485.797C260.404 485.934 260.351 486.064 260.274 486.18C260.197 486.296 260.099 486.396 259.983 486.474C259.868 486.552 259.739 486.607 259.602 486.634C225.817 493.474 154.546 501.255 153.83 501.332H153.716V501.353Z" fill="#262424"/>
<path d="M157.771 478.094C157.771 478.094 154.003 485.637 160.525 494.777L157.771 478.094Z" fill="white"/>
<path d="M160.525 495.841C160.36 495.842 160.198 495.804 160.051 495.73C159.904 495.656 159.776 495.549 159.678 495.417C152.864 485.866 156.673 477.971 156.838 477.64C156.964 477.388 157.184 477.196 157.451 477.106C157.717 477.017 158.008 477.037 158.26 477.162C158.512 477.288 158.703 477.508 158.793 477.775C158.882 478.042 158.862 478.334 158.737 478.586C158.593 478.874 155.347 485.718 161.402 494.182C161.511 494.342 161.574 494.528 161.585 494.721C161.596 494.914 161.554 495.106 161.464 495.277C161.373 495.448 161.238 495.591 161.073 495.69C160.907 495.789 160.718 495.842 160.525 495.841Z" fill="#262424"/>
<path d="M255.153 459.59C255.153 462.708 255.993 465.769 257.585 468.449C259.177 471.129 261.461 473.329 264.197 474.818C266.933 476.308 270.019 477.031 273.131 476.911C276.243 476.792 279.265 475.834 281.878 474.139C287.082 464.355 286.235 449.162 275.031 442.449C272.568 442.08 270.055 442.247 267.662 442.939C265.27 443.631 263.055 444.831 261.168 446.458C259.281 448.085 257.767 450.101 256.729 452.367C255.691 454.633 255.153 457.097 255.153 459.59Z" fill="white"/>
<path d="M263.509 484.861C263.518 492.93 260.815 500.767 255.835 507.11H220.909L214.757 504.544L194.84 496.232C192.633 488.052 196.396 480.61 203.684 480.563L243.864 471.653C245.676 471.249 247.519 470.998 249.373 470.902C253.429 470.688 257.491 471.211 261.361 472.446C261.361 472.446 263.509 477.525 263.509 484.861Z" fill="#8FCAD6"/>
<path d="M255.835 508.176H220.909C220.764 508.178 220.62 508.151 220.486 508.095L194.404 497.212C194.255 497.149 194.121 497.053 194.015 496.931C193.908 496.809 193.831 496.664 193.789 496.508C192.463 491.599 193.162 486.711 195.654 483.431C196.575 482.211 197.766 481.221 199.134 480.539C200.501 479.858 202.008 479.503 203.536 479.502L243.61 470.592C249.589 469.262 255.814 469.545 261.649 471.411C261.794 471.457 261.927 471.534 262.04 471.637C262.152 471.739 262.242 471.865 262.301 472.005C262.395 472.222 264.556 477.381 264.556 484.848C264.556 493.224 261.899 500.925 256.665 507.76C256.568 507.888 256.442 507.992 256.298 508.064C256.154 508.136 255.996 508.174 255.835 508.176ZM221.121 506.054H255.309C259.961 499.974 262.472 492.524 262.45 484.865C262.464 480.93 261.817 477.02 260.534 473.299C255.194 471.681 249.527 471.468 244.08 472.68L203.9 481.59C203.828 481.606 203.754 481.614 203.68 481.615C202.456 481.592 201.245 481.86 200.146 482.398C199.047 482.936 198.091 483.728 197.357 484.708C195.345 487.36 194.747 491.344 195.726 495.447L221.121 506.054Z" fill="#262424"/>
<path d="M202.582 489.846C202.582 489.846 223.592 488.612 234.173 487.301C234.693 483.888 235.875 480.611 237.652 477.652C219.829 481.136 203.527 482.947 203.527 482.947L202.582 489.846Z" fill="white"/>
<path d="M202.582 490.899C202.431 490.899 202.281 490.866 202.143 490.804C202.005 490.741 201.882 490.65 201.783 490.536C201.683 490.421 201.609 490.287 201.566 490.142C201.522 489.997 201.51 489.844 201.531 489.694L202.472 482.803C202.503 482.569 202.612 482.352 202.781 482.187C202.95 482.021 203.169 481.917 203.404 481.891C203.565 481.891 219.871 480.041 237.444 476.609C237.646 476.569 237.855 476.589 238.045 476.667C238.236 476.744 238.4 476.876 238.517 477.045C238.634 477.214 238.7 477.414 238.706 477.619C238.712 477.825 238.657 478.028 238.55 478.204C236.843 481.044 235.71 484.193 235.215 487.47C235.178 487.696 235.068 487.903 234.903 488.062C234.738 488.22 234.527 488.321 234.3 488.349C223.808 489.643 202.853 490.894 202.641 490.894H202.578L202.582 490.899ZM204.463 483.906L203.807 488.701C208.4 488.416 224.189 487.428 233.266 486.338C233.723 483.837 234.518 481.41 235.63 479.125C221.07 481.882 207.828 483.516 204.463 483.915V483.906Z" fill="#262424"/>
<path d="M218.591 498.843C219.431 497.18 217.841 494.682 215.038 493.262C212.236 491.842 209.283 492.039 208.443 493.701C207.603 495.363 209.194 497.862 211.996 499.282C214.799 500.701 217.751 500.505 218.591 498.843Z" fill="white"/>
<path d="M263.509 484.861C263.518 492.93 260.815 500.767 255.835 507.11H220.909L214.756 504.544L243.368 502.902C243.368 502.902 227.486 483.304 248.911 471.127C249.059 471.046 249.203 470.961 249.334 470.889C253.391 470.675 257.452 471.198 261.322 472.434C261.322 472.434 263.509 477.525 263.509 484.861Z" fill="white"/>
<path d="M255.835 508.175H220.909C220.764 508.178 220.62 508.15 220.486 508.095L214.333 505.528C214.112 505.435 213.93 505.27 213.815 505.06C213.7 504.85 213.659 504.608 213.699 504.371C213.739 504.135 213.858 503.92 214.036 503.76C214.215 503.6 214.441 503.506 214.68 503.491L241.376 501.96C239.347 498.892 235.524 491.896 236.944 484.369C238.016 478.675 241.864 473.914 248.385 470.21L248.491 470.151L248.856 469.952C248.987 469.884 249.132 469.845 249.279 469.837C253.464 469.613 257.654 470.154 261.644 471.432C261.789 471.479 261.923 471.556 262.035 471.658C262.148 471.761 262.237 471.886 262.297 472.026C262.39 472.243 264.551 477.402 264.551 484.869C264.551 493.245 261.894 500.946 256.661 507.781C256.562 507.904 256.436 508.004 256.293 508.072C256.15 508.14 255.993 508.176 255.835 508.175ZM221.121 506.054H255.309C258.795 501.441 261.095 496.042 262.006 490.33C262.917 484.618 262.412 478.769 260.534 473.299C257.006 472.23 253.322 471.771 249.64 471.941L249.538 472.001L249.432 472.06C243.499 475.455 239.995 479.697 239.037 484.751C237.342 493.661 244.122 502.146 244.194 502.24C244.317 502.391 244.396 502.574 244.422 502.768C244.447 502.961 244.419 503.158 244.34 503.337C244.261 503.515 244.135 503.668 243.975 503.78C243.814 503.891 243.626 503.955 243.432 503.967L219.418 505.324L221.121 506.054Z" fill="#262424"/>
<path d="M187.946 477.661L204.896 481.904C204.896 481.904 207.938 490.283 200.874 493.33L180.878 490.5L187.946 477.661Z" fill="white"/>
<path d="M200.879 494.39H200.73L180.734 491.56C180.564 491.536 180.402 491.471 180.263 491.371C180.124 491.271 180.011 491.138 179.935 490.985C179.858 490.831 179.82 490.661 179.823 490.489C179.826 490.318 179.871 490.149 179.954 489.999L187.018 477.16C187.131 476.955 187.309 476.794 187.523 476.7C187.738 476.606 187.977 476.586 188.204 476.643L205.154 480.885C205.322 480.928 205.477 481.011 205.606 481.127C205.734 481.243 205.832 481.389 205.892 481.552C207.061 484.776 207.608 491.59 201.294 494.314C201.162 494.367 201.021 494.393 200.879 494.39ZM182.551 489.664L200.722 492.235C205.599 489.927 204.536 484.509 204.065 482.786L188.48 478.887L182.551 489.664Z" fill="#262424"/>
<path d="M187.298 499.711C187.298 499.711 89.636 488.12 79.0549 480.703C76.7083 478.983 74.7981 476.734 73.4784 474.139C68.2747 464.355 69.1223 449.162 80.3262 442.449C83.8518 440.328 88.3986 439.055 94.1108 439.055L192.082 474.458C192.082 474.458 198.379 488.395 187.298 499.711Z" fill="#378595"/>
<path d="M187.297 500.772H187.175C186.543 500.695 123.693 493.202 93.725 486.478C93.5892 486.447 93.4607 486.39 93.3469 486.31C93.233 486.23 93.1361 486.128 93.0615 486.011C92.9869 485.893 92.9362 485.762 92.9123 485.625C92.8883 485.488 92.8916 485.347 92.922 485.211C92.9523 485.075 93.0091 484.946 93.089 484.832C93.169 484.718 93.2706 484.621 93.3881 484.547C93.5056 484.472 93.6365 484.421 93.7736 484.397C93.9107 484.373 94.0511 484.377 94.1869 484.407C122.578 490.771 180.755 497.861 186.899 498.599C195.878 489.04 192.145 477.576 191.276 475.306L107.755 445.127C107.499 445.025 107.292 444.828 107.178 444.576C107.065 444.325 107.054 444.039 107.147 443.779C107.241 443.519 107.433 443.307 107.681 443.186C107.929 443.065 108.214 443.046 108.476 443.133L192.438 473.473C192.571 473.521 192.693 473.596 192.797 473.692C192.901 473.788 192.985 473.904 193.043 474.033C193.111 474.178 199.514 488.76 188.052 500.458C187.953 500.557 187.835 500.637 187.706 500.69C187.577 500.744 187.438 500.772 187.297 500.772Z" fill="#262424"/>
<path d="M180.484 495.26C180.287 495.26 180.094 495.205 179.927 495.102C179.759 494.998 179.624 494.85 179.536 494.674C179.448 494.498 179.411 494.301 179.429 494.104C179.446 493.908 179.518 493.721 179.636 493.563C185.802 484.916 183.547 475.23 183.526 475.132C183.493 474.997 183.488 474.856 183.509 474.718C183.53 474.581 183.579 474.449 183.651 474.33C183.723 474.211 183.819 474.107 183.931 474.025C184.043 473.943 184.171 473.884 184.306 473.851C184.441 473.818 184.582 473.812 184.719 473.833C184.856 473.855 184.988 473.903 185.107 473.976C185.226 474.048 185.33 474.143 185.412 474.256C185.494 474.368 185.553 474.496 185.586 474.631C185.692 475.056 188.086 485.366 181.348 494.794C181.252 494.935 181.124 495.052 180.973 495.133C180.823 495.215 180.655 495.258 180.484 495.26Z" fill="#262424"/>
<path d="M100.2 459.59C100.199 462.708 99.3591 465.769 97.7674 468.449C96.1757 471.129 93.8916 473.329 91.1558 474.818C88.4199 476.308 85.3335 477.031 82.2217 476.911C79.1099 476.792 76.0879 475.834 73.474 474.139C68.2704 464.355 69.1179 449.162 80.3218 442.449C82.7845 442.08 85.2977 442.247 87.6901 442.939C90.0824 443.631 92.2976 444.831 94.1844 446.458C96.0713 448.085 97.5854 450.101 98.6235 452.367C99.6616 454.633 100.199 457.097 100.2 459.59Z" fill="white"/>
<path d="M129.477 292.456C129.477 292.456 154.902 274.174 207.943 278.747C207.943 278.747 222.939 291.586 219.464 329.662C215.99 367.737 215.117 426.725 215.117 426.725H113.84C113.84 426.725 113.175 367.105 129.477 292.456Z" fill="#B5DCE3"/>
<path d="M208.015 421.12H117.887C117.607 421.12 117.337 421.009 117.138 420.81C116.94 420.611 116.828 420.341 116.828 420.06C116.828 419.778 116.94 419.509 117.138 419.31C117.337 419.111 117.607 418.999 117.887 418.999H208.019C208.158 418.999 208.296 419.027 208.424 419.081C208.553 419.134 208.669 419.213 208.768 419.311C208.866 419.41 208.944 419.527 208.997 419.656C209.05 419.785 209.077 419.923 209.076 420.062C209.076 420.201 209.048 420.339 208.995 420.468C208.941 420.596 208.863 420.713 208.765 420.811C208.666 420.909 208.549 420.987 208.42 421.04C208.292 421.093 208.154 421.121 208.015 421.12Z" fill="#262424"/>
<path d="M219.863 314.633C219.59 314.634 219.328 314.529 219.131 314.341C218.934 314.153 218.816 313.896 218.803 313.624C217.926 295.714 212.447 286.045 209.282 281.853C209.113 281.628 209.041 281.345 209.08 281.067C209.12 280.788 209.269 280.537 209.494 280.368C209.718 280.199 210.001 280.127 210.279 280.166C210.557 280.206 210.808 280.355 210.977 280.58C214.303 284.954 220.024 295.053 220.926 313.534C220.94 313.815 220.842 314.09 220.654 314.298C220.466 314.507 220.202 314.632 219.922 314.646H219.871L219.863 314.633Z" fill="#262424"/>
<path d="M157.156 288.845C158.436 291.858 160.361 294.553 162.796 296.74C165.231 298.926 168.115 300.55 171.246 301.497C172.297 295.727 175.191 288.468 175.191 288.468C178.399 292.901 180.094 298.761 180.517 301.434C190.929 298.57 192.115 288.548 192.115 288.548C190.844 278.505 182.221 270.945 174.818 271.199C158.461 271.755 157.156 288.845 157.156 288.845Z" fill="white"/>
<path d="M171.242 302.558C171.134 302.559 171.027 302.543 170.924 302.511C167.651 301.512 164.635 299.808 162.088 297.52C159.541 295.233 157.524 292.415 156.177 289.265C156.109 289.108 156.08 288.936 156.092 288.765C156.092 288.582 157.669 270.72 174.776 270.138C182.348 269.884 191.755 277.326 193.162 288.417C193.173 288.503 193.173 288.59 193.162 288.675C193.162 288.782 191.764 299.44 180.793 302.46C180.65 302.5 180.5 302.509 180.353 302.487C180.207 302.464 180.066 302.412 179.941 302.332C179.816 302.252 179.709 302.146 179.627 302.022C179.546 301.898 179.491 301.758 179.467 301.612C178.753 297.799 177.388 294.138 175.432 290.788C174.513 293.313 172.97 297.865 172.271 301.688C172.227 301.93 172.1 302.15 171.912 302.308C171.724 302.467 171.487 302.555 171.242 302.558ZM158.237 288.675C159.396 291.306 161.075 293.674 163.172 295.638C165.269 297.601 167.742 299.12 170.441 300.101C171.631 294.556 174.093 288.357 174.204 288.077C174.274 287.901 174.39 287.748 174.54 287.632C174.69 287.517 174.868 287.444 175.056 287.42C175.243 287.397 175.434 287.424 175.607 287.499C175.781 287.575 175.931 287.695 176.043 287.848C179.034 291.972 180.704 297.106 181.335 300.072C189.446 297.242 190.878 289.656 191.043 288.548C189.772 278.947 181.445 272.039 174.852 272.26C168.466 272.476 163.733 275.332 160.779 280.746C159.459 283.213 158.597 285.9 158.237 288.675Z" fill="#262424"/>
<path d="M281.285 453.286H199.502C198.949 453.286 198.403 453.159 197.906 452.915C197.409 452.672 196.975 452.317 196.636 451.879C196.298 451.442 196.064 450.932 195.952 450.39C195.841 449.847 195.855 449.286 195.993 448.75L213.689 380.415C213.891 379.637 214.345 378.948 214.98 378.457C215.615 377.965 216.395 377.699 217.197 377.699H298.981C299.534 377.699 300.08 377.826 300.577 378.069C301.074 378.313 301.508 378.668 301.847 379.105C302.185 379.543 302.419 380.053 302.531 380.595C302.642 381.138 302.628 381.699 302.49 382.235L284.807 450.57C284.604 451.35 284.148 452.04 283.511 452.532C282.873 453.024 282.09 453.289 281.285 453.286Z" fill="white"/>
<path d="M281.285 454.347H199.501C198.785 454.351 198.077 454.19 197.433 453.876C196.789 453.562 196.226 453.104 195.787 452.537C195.349 451.97 195.046 451.309 194.904 450.606C194.762 449.903 194.784 449.176 194.967 448.483L212.663 380.16C212.92 379.152 213.506 378.26 214.327 377.623C215.148 376.987 216.159 376.643 217.197 376.647H298.981C299.697 376.643 300.405 376.804 301.049 377.118C301.694 377.431 302.257 377.89 302.695 378.457C303.134 379.024 303.436 379.685 303.578 380.388C303.72 381.091 303.699 381.817 303.515 382.511L285.819 450.833C285.563 451.841 284.977 452.734 284.155 453.371C283.334 454.007 282.324 454.35 281.285 454.347ZM217.197 378.756C216.629 378.755 216.077 378.944 215.628 379.292C215.178 379.64 214.857 380.127 214.714 380.678L197.044 449.013C196.941 449.393 196.927 449.792 197.004 450.178C197.081 450.564 197.246 450.927 197.487 451.238C197.728 451.549 198.037 451.8 198.391 451.972C198.745 452.143 199.134 452.23 199.527 452.225H281.311C281.88 452.229 282.434 452.042 282.884 451.694C283.334 451.345 283.654 450.855 283.794 450.303L301.477 381.968C301.58 381.588 301.593 381.189 301.516 380.803C301.439 380.417 301.274 380.054 301.034 379.743C300.793 379.432 300.483 379.181 300.13 379.009C299.776 378.838 299.387 378.751 298.994 378.756H217.21H217.197Z" fill="#262424"/>
<path d="M287.663 453.286H205.879C205.326 453.286 204.78 453.159 204.284 452.915C203.787 452.672 203.353 452.317 203.014 451.879C202.675 451.442 202.441 450.932 202.33 450.39C202.218 449.847 202.232 449.286 202.37 448.75L220.066 380.415C220.268 379.637 220.722 378.948 221.357 378.457C221.992 377.965 222.772 377.699 223.575 377.699H305.359C305.912 377.699 306.458 377.826 306.954 378.069C307.451 378.313 307.885 378.668 308.224 379.105C308.563 379.543 308.797 380.053 308.908 380.595C309.02 381.138 309.006 381.699 308.867 382.235L291.184 450.57C290.982 451.35 290.526 452.04 289.888 452.532C289.251 453.024 288.468 453.289 287.663 453.286Z" fill="white"/>
<path d="M287.663 454.347H205.879C205.163 454.351 204.455 454.19 203.811 453.876C203.167 453.562 202.603 453.104 202.165 452.537C201.726 451.969 201.424 451.309 201.282 450.606C201.14 449.903 201.161 449.176 201.345 448.483L219.041 380.16C219.298 379.152 219.883 378.26 220.705 377.623C221.526 376.987 222.536 376.643 223.575 376.647H305.359C306.075 376.643 306.783 376.804 307.427 377.118C308.071 377.431 308.634 377.89 309.073 378.457C309.512 379.024 309.814 379.685 309.956 380.388C310.098 381.091 310.076 381.817 309.893 382.511L292.21 450.846C291.95 451.854 291.361 452.745 290.538 453.379C289.714 454.014 288.702 454.354 287.663 454.347ZM223.571 378.756C223.002 378.752 222.448 378.939 221.998 379.287C221.547 379.636 221.227 380.125 221.088 380.678L203.4 449.013C203.297 449.393 203.284 449.792 203.361 450.178C203.438 450.564 203.603 450.927 203.844 451.238C204.084 451.549 204.394 451.8 204.748 451.972C205.102 452.143 205.49 452.23 205.883 452.225H287.667C288.236 452.229 288.79 452.042 289.24 451.694C289.69 451.345 290.011 450.855 290.15 450.303L307.833 381.968C307.936 381.588 307.95 381.189 307.873 380.803C307.796 380.417 307.631 380.054 307.39 379.743C307.149 379.432 306.84 379.181 306.486 379.009C306.132 378.838 305.743 378.751 305.35 378.756H223.566H223.571Z" fill="#262424"/>
<path d="M189.954 460.537H280.798C282.748 460.537 284.328 458.954 284.328 457.002V456.816C284.328 454.864 282.748 453.281 280.798 453.281H189.954C188.005 453.281 186.425 454.864 186.425 456.816V457.002C186.425 458.954 188.005 460.537 189.954 460.537Z" fill="white"/>
<path d="M280.798 461.602H189.959C188.742 461.599 187.576 461.115 186.716 460.253C185.856 459.392 185.372 458.225 185.369 457.007V456.824C185.372 455.606 185.856 454.439 186.716 453.578C187.576 452.716 188.742 452.231 189.959 452.229H280.798C282.014 452.231 283.18 452.716 284.04 453.578C284.901 454.439 285.385 455.606 285.387 456.824V457.007C285.385 458.225 284.901 459.392 284.04 460.253C283.18 461.115 282.014 461.599 280.798 461.602ZM189.959 454.346C189.304 454.348 188.676 454.609 188.213 455.072C187.75 455.536 187.489 456.164 187.488 456.82V457.002C187.489 457.658 187.75 458.287 188.213 458.75C188.676 459.214 189.304 459.475 189.959 459.476H280.798C281.453 459.475 282.08 459.214 282.543 458.75C283.007 458.287 283.267 457.658 283.268 457.002V456.82C283.267 456.164 283.007 455.536 282.543 455.072C282.08 454.609 281.453 454.348 280.798 454.346H189.959Z" fill="#262424"/>
<path d="M191.298 453.286H128.371C126.421 453.286 124.841 454.868 124.841 456.82V457.007C124.841 458.959 126.421 460.541 128.371 460.541H191.298C193.247 460.541 194.828 458.959 194.828 457.007V456.82C194.828 454.868 193.247 453.286 191.298 453.286Z" fill="white"/>
<path d="M191.298 461.602H128.371C127.155 461.599 125.989 461.115 125.128 460.253C124.268 459.392 123.784 458.225 123.782 457.007V456.824C123.784 455.606 124.268 454.439 125.128 453.578C125.989 452.716 127.155 452.231 128.371 452.229H191.298C192.514 452.231 193.68 452.716 194.54 453.578C195.401 454.439 195.885 455.606 195.887 456.824V457.007C195.885 458.225 195.401 459.392 194.54 460.253C193.68 461.115 192.514 461.599 191.298 461.602ZM128.371 454.346C127.716 454.348 127.088 454.609 126.625 455.072C126.162 455.536 125.902 456.164 125.9 456.82V457.002C125.902 457.658 126.162 458.287 126.625 458.75C127.088 459.214 127.716 459.475 128.371 459.476H191.298C191.953 459.475 192.58 459.214 193.043 458.75C193.507 458.287 193.767 457.658 193.768 457.002V456.82C193.767 456.164 193.507 455.536 193.043 455.072C192.58 454.609 191.953 454.348 191.298 454.346H128.371Z" fill="#262424"/>
<path d="M159.148 433.917L146.012 443.056C146.012 443.056 122.578 422.631 109.925 407.739C105.599 402.647 102.535 398.188 102.09 395.434C101.721 393.13 102.043 387.475 102.937 379.922C106.221 351.809 117.264 297.471 129.494 292.498C136.448 289.626 144.923 296.151 144.478 312.915C144.033 329.678 135.346 386.69 135.346 386.69L159.148 433.917Z" fill="#B5DCE3"/>
<path d="M126.43 426.059C126.155 426.06 125.89 425.954 125.693 425.762C121.553 421.744 117.853 418.002 114.705 414.642C114.61 414.54 114.536 414.42 114.486 414.29C114.437 414.16 114.414 414.021 114.419 413.882C114.424 413.742 114.455 413.605 114.513 413.478C114.57 413.351 114.652 413.237 114.754 413.142C114.855 413.046 114.974 412.972 115.105 412.923C115.235 412.874 115.374 412.851 115.513 412.856C115.652 412.86 115.789 412.892 115.915 412.949C116.042 413.007 116.156 413.089 116.252 413.191C119.379 416.53 123.032 420.246 127.167 424.222C127.324 424.368 127.433 424.558 127.48 424.767C127.526 424.977 127.509 425.195 127.429 425.394C127.349 425.593 127.211 425.763 127.032 425.882C126.854 426 126.644 426.062 126.43 426.059Z" fill="#262424"/>
<path d="M143.1 437.952C142.872 437.953 142.649 437.88 142.466 437.744C142.283 437.607 142.148 437.416 142.082 437.197C142.016 436.978 142.023 436.743 142.101 436.529C142.179 436.314 142.325 436.13 142.515 436.005L153.457 428.792C153.691 428.651 153.97 428.607 154.236 428.668C154.502 428.729 154.734 428.89 154.885 429.118C155.035 429.346 155.091 429.624 155.043 429.892C154.994 430.161 154.843 430.401 154.622 430.561L144.249 437.413L144.147 437.473L143.685 437.778C143.511 437.892 143.308 437.953 143.1 437.952Z" fill="#262424"/>
<path d="M154.165 425.083C153.969 425.083 153.777 425.029 153.61 424.926C153.443 424.824 153.308 424.677 153.22 424.502L134.405 387.165C134.306 386.969 134.271 386.746 134.303 386.529C134.388 385.96 142.99 329.386 143.423 312.885C143.74 300.653 139.291 294.734 135.024 293.271C134.761 293.177 134.545 292.984 134.424 292.732C134.302 292.481 134.285 292.191 134.375 291.927C134.466 291.663 134.657 291.445 134.907 291.321C135.157 291.196 135.445 291.176 135.71 291.264C140.689 292.961 145.88 299.558 145.541 312.94C145.118 328.902 137.168 381.777 136.452 386.512L155.097 423.543C155.178 423.704 155.217 423.883 155.211 424.063C155.204 424.243 155.151 424.418 155.058 424.572C154.965 424.727 154.834 424.854 154.677 424.944C154.521 425.033 154.345 425.081 154.165 425.083Z" fill="#262424"/>
<path d="M122.087 391.523C121.83 391.524 121.581 391.432 121.387 391.264C121.193 391.095 121.066 390.862 121.031 390.607C120.996 390.353 121.054 390.094 121.195 389.879C121.336 389.664 121.551 389.508 121.799 389.439L135.058 385.676C135.328 385.599 135.618 385.632 135.863 385.769C136.109 385.906 136.29 386.135 136.367 386.406C136.444 386.676 136.41 386.966 136.274 387.212C136.137 387.458 135.908 387.64 135.638 387.717L122.379 391.489C122.284 391.513 122.185 391.525 122.087 391.523Z" fill="#262424"/>
<path d="M109.925 407.739C105.599 402.647 102.535 398.188 102.09 395.434C101.721 393.131 102.043 387.475 102.937 379.922C107.832 379.922 112.836 384.649 114.713 391.489C116.663 398.583 114.535 405.503 109.925 407.739Z" fill="white"/>
<path d="M146.825 442.483C146.825 442.483 148.986 448.555 154.313 448.228C154.313 448.228 161.216 455.899 164.529 456.29C167.843 456.68 174.699 453.57 174.907 450.524C174.907 450.524 178.763 450.468 178.297 446.552C177.831 442.636 171.559 432.025 167.864 430.773C164.169 429.521 155.737 435.627 146.825 442.483Z" fill="white"/>
<path d="M165.097 457.38C164.866 457.38 164.636 457.368 164.406 457.342C161.122 456.964 155.41 450.977 153.855 449.31C148.185 449.31 145.922 443.12 145.825 442.848C145.75 442.637 145.743 442.408 145.807 442.193C145.87 441.978 145.999 441.788 146.177 441.652C157.495 432.945 164.355 428.473 168.178 429.772C172.339 431.18 178.771 442.076 179.322 446.425C179.509 447.906 179.195 449.128 178.394 450.048C177.703 450.802 176.782 451.308 175.776 451.487C175.367 452.497 174.691 453.377 173.822 454.032C171.525 455.937 167.716 457.38 165.097 457.38ZM154.308 447.176C154.457 447.176 154.604 447.207 154.74 447.268C154.876 447.329 154.997 447.417 155.097 447.528C157.66 450.379 162.525 454.991 164.648 455.237C166.678 455.466 170.411 454.121 172.475 452.407C173.322 451.703 173.809 451.007 173.852 450.451C173.871 450.186 173.988 449.938 174.182 449.756C174.375 449.574 174.629 449.471 174.894 449.467C174.894 449.467 176.14 449.425 176.809 448.648C177.014 448.37 177.158 448.051 177.231 447.714C177.304 447.376 177.305 447.026 177.233 446.688C176.75 442.827 170.568 432.818 167.512 431.783C164.152 430.65 154.376 438.041 148.134 442.84C148.829 444.278 150.749 447.401 154.257 447.184H154.321L154.308 447.176Z" fill="#262424"/>
<path d="M173.928 449.938C173.755 449.938 173.584 449.895 173.431 449.814C173.279 449.732 173.148 449.615 173.051 449.471L167.021 440.561C166.873 440.328 166.822 440.047 166.878 439.776C166.934 439.506 167.093 439.268 167.322 439.114C167.55 438.959 167.83 438.9 168.101 438.948C168.372 438.997 168.614 439.149 168.775 439.373L174.805 448.283C174.913 448.443 174.975 448.629 174.985 448.821C174.996 449.013 174.953 449.204 174.863 449.374C174.773 449.545 174.638 449.687 174.474 449.786C174.309 449.885 174.12 449.938 173.928 449.938Z" fill="#262424"/>
<path d="M165.241 250.956L165.508 261.025L165.962 278.251C171.75 282.303 177.378 282.727 182.806 278.645L182.009 270.643L180.806 258.522L165.241 250.956Z" fill="white"/>
<path d="M174.95 282.574C171.842 282.574 168.644 281.425 165.356 279.125C165.219 279.029 165.106 278.903 165.027 278.755C164.949 278.608 164.906 278.444 164.902 278.276L164.182 250.982C164.177 250.8 164.219 250.619 164.304 250.458C164.388 250.297 164.513 250.16 164.666 250.061C164.819 249.962 164.995 249.904 165.176 249.893C165.358 249.882 165.54 249.918 165.703 249.998L181.272 257.567C181.435 257.646 181.575 257.765 181.679 257.914C181.783 258.062 181.847 258.235 181.865 258.416L183.865 278.539C183.883 278.722 183.853 278.905 183.779 279.073C183.705 279.24 183.588 279.385 183.441 279.494C180.717 281.548 177.878 282.574 174.95 282.574ZM167.008 277.687C172.284 281.208 177.098 281.361 181.696 278.149L179.81 259.239L166.343 252.692L167.008 277.687Z" fill="#262424"/>
<path d="M192.836 248.207C193.747 256.485 193.472 266.676 183.441 267.245C171.517 267.915 162.296 261.36 159.856 250.371C157.415 239.382 161.127 232.127 174.564 230.561C175.706 230.426 176.856 230.386 178.005 230.442C186.009 230.867 191.141 236.331 192.255 243.799C192.45 245.148 192.666 246.642 192.836 248.207Z" fill="white"/>
<path d="M181.789 268.348C177.726 268.396 173.71 267.466 170.081 265.637C169.957 265.573 169.847 265.485 169.758 265.378C169.668 265.272 169.6 265.149 169.558 265.016C169.516 264.883 169.501 264.743 169.512 264.605C169.524 264.466 169.563 264.331 169.627 264.207C169.691 264.083 169.779 263.973 169.885 263.884C169.992 263.794 170.115 263.726 170.247 263.684C170.38 263.642 170.52 263.626 170.658 263.638C170.797 263.65 170.932 263.689 171.055 263.753C174.862 265.646 179.105 266.484 183.344 266.18C186.06 266.027 188.073 265.132 189.497 263.443C192.603 259.765 192.268 253.053 191.747 248.317C191.582 246.765 191.37 245.309 191.171 243.952C190.094 236.645 185.014 231.876 177.912 231.499C177.631 231.484 177.367 231.358 177.179 231.149C176.99 230.94 176.893 230.664 176.907 230.383C176.922 230.102 177.048 229.838 177.257 229.649C177.466 229.46 177.741 229.363 178.022 229.377C186.192 229.802 192.031 235.275 193.277 243.638C193.472 244.957 193.7 246.497 193.866 248.084C194.429 253.201 194.76 260.507 191.128 264.809C189.332 266.931 186.759 268.106 183.475 268.293C182.916 268.33 182.354 268.348 181.789 268.348Z" fill="#262424"/>
<path d="M156.864 253.171C158.319 254.546 159.892 255.791 161.563 256.892L167.462 256.01L167.805 251.601C167.805 251.601 171.462 250.647 171.695 247.987C171.699 247.924 171.699 247.862 171.695 247.8C171.695 246.951 171.695 243.133 169.932 237.583C169.932 237.583 179.649 239.607 184.59 239.085C186.365 238.898 188.255 237.812 189.946 236.454C193.336 233.773 195.319 226.895 193.76 222.877L193.73 222.801C191.387 216.908 189.107 221.825 189.107 221.825C189.107 221.825 187.145 217.094 183.988 217.4C180.831 217.705 179.839 222.674 179.839 222.674C173.625 222.557 167.444 223.61 161.618 225.779C150.096 230.15 154.813 237.727 154.813 237.727C154.813 237.727 146.711 242.424 156.864 253.171Z" fill="#262424"/>
<path d="M166.059 255.649C165.576 250.948 161.445 247.371 156.737 247.825C155.738 247.923 154.767 248.211 153.876 248.674C148.52 251.427 152.842 264.372 166.53 260.371L166.059 255.649Z" fill="white"/>
<path d="M161.652 262.158C156.228 262.158 152.597 259.277 151.202 255.768C149.88 252.437 150.804 249.047 153.402 247.706C154.413 247.189 155.513 246.869 156.643 246.765C161.868 246.255 166.568 250.197 167.114 255.535C167.128 255.674 167.115 255.815 167.075 255.949C167.035 256.083 166.969 256.208 166.88 256.316C166.792 256.425 166.683 256.515 166.56 256.581C166.437 256.648 166.302 256.689 166.163 256.703C166.024 256.718 165.883 256.704 165.749 256.664C165.615 256.624 165.491 256.558 165.382 256.469C165.274 256.381 165.184 256.272 165.118 256.149C165.051 256.025 165.01 255.89 164.996 255.751C164.813 253.76 163.855 251.922 162.328 250.635C160.801 249.347 158.828 248.714 156.838 248.873C155.974 248.952 155.133 249.196 154.359 249.59C152.753 250.418 152.241 252.683 153.16 254.975C154.499 258.348 158.728 261.509 166.233 259.323C166.366 259.284 166.506 259.272 166.645 259.287C166.783 259.302 166.917 259.345 167.039 259.412C167.161 259.479 167.268 259.569 167.356 259.678C167.443 259.786 167.508 259.911 167.547 260.045C167.585 260.178 167.598 260.319 167.583 260.457C167.567 260.595 167.525 260.73 167.458 260.852C167.391 260.974 167.301 261.082 167.193 261.169C167.084 261.256 166.96 261.321 166.826 261.36C165.148 261.869 163.406 262.137 161.652 262.158Z" fill="#262424"/>
<path d="M180.386 128.983C180.105 128.983 179.836 128.871 179.637 128.672C179.439 128.473 179.327 128.203 179.327 127.922V123.017C179.327 122.736 179.439 122.466 179.637 122.267C179.836 122.068 180.105 121.957 180.386 121.957C180.667 121.957 180.937 122.068 181.135 122.267C181.334 122.466 181.446 122.736 181.446 123.017V127.931C181.443 128.21 181.331 128.478 181.132 128.675C180.934 128.872 180.666 128.983 180.386 128.983Z" fill="#262424"/>
<path d="M187.785 131.486H182.878C182.597 131.486 182.327 131.374 182.129 131.175C181.93 130.977 181.818 130.707 181.818 130.425C181.818 130.144 181.93 129.874 182.129 129.675C182.327 129.476 182.597 129.365 182.878 129.365H187.785C188.066 129.365 188.335 129.476 188.534 129.675C188.733 129.874 188.844 130.144 188.844 130.425C188.844 130.707 188.733 130.977 188.534 131.175C188.335 131.374 188.066 131.486 187.785 131.486Z" fill="#262424"/>
<path d="M180.386 138.894C180.105 138.894 179.836 138.782 179.637 138.583C179.439 138.385 179.327 138.115 179.327 137.833V132.92C179.327 132.639 179.439 132.369 179.637 132.17C179.836 131.971 180.105 131.859 180.386 131.859C180.667 131.859 180.937 131.971 181.135 132.17C181.334 132.369 181.446 132.639 181.446 132.92V137.833C181.446 137.973 181.418 138.111 181.365 138.239C181.312 138.368 181.234 138.485 181.135 138.583C181.037 138.682 180.92 138.76 180.792 138.813C180.663 138.867 180.525 138.894 180.386 138.894Z" fill="#262424"/>
<path d="M177.89 131.486H172.988C172.707 131.486 172.437 131.374 172.238 131.175C172.04 130.977 171.928 130.707 171.928 130.425C171.928 130.144 172.04 129.874 172.238 129.675C172.437 129.476 172.707 129.365 172.988 129.365H177.89C178.171 129.365 178.441 129.476 178.639 129.675C178.838 129.874 178.95 130.144 178.95 130.425C178.95 130.707 178.838 130.977 178.639 131.175C178.441 131.374 178.171 131.486 177.89 131.486Z" fill="#262424"/>
<path d="M494.466 377.16C494.185 377.16 493.915 377.048 493.717 376.85C493.518 376.651 493.406 376.381 493.406 376.1V372.947C493.406 372.666 493.518 372.396 493.717 372.197C493.915 371.998 494.185 371.886 494.466 371.886C494.747 371.886 495.016 371.998 495.215 372.197C495.413 372.396 495.525 372.666 495.525 372.947V376.087C495.527 376.227 495.5 376.366 495.448 376.497C495.396 376.627 495.318 376.745 495.219 376.845C495.121 376.945 495.003 377.024 494.874 377.078C494.745 377.132 494.606 377.16 494.466 377.16Z" fill="#262424"/>
<path d="M499.177 378.756H496.042C495.761 378.756 495.491 378.644 495.292 378.445C495.094 378.246 494.982 377.976 494.982 377.695C494.982 377.414 495.094 377.144 495.292 376.945C495.491 376.746 495.761 376.634 496.042 376.634H499.177C499.458 376.634 499.728 376.746 499.926 376.945C500.125 377.144 500.237 377.414 500.237 377.695C500.237 377.976 500.125 378.246 499.926 378.445C499.728 378.644 499.458 378.756 499.177 378.756Z" fill="#262424"/>
<path d="M494.466 383.491C494.185 383.491 493.915 383.379 493.717 383.18C493.518 382.981 493.406 382.711 493.406 382.43V379.311C493.406 379.03 493.518 378.76 493.717 378.561C493.915 378.362 494.185 378.251 494.466 378.251C494.747 378.251 495.016 378.362 495.215 378.561C495.413 378.76 495.525 379.03 495.525 379.311V382.451C495.52 382.729 495.405 382.993 495.207 383.187C495.009 383.382 494.743 383.491 494.466 383.491Z" fill="#262424"/>
<path d="M492.868 378.756H489.732C489.451 378.756 489.182 378.644 488.983 378.445C488.784 378.246 488.673 377.976 488.673 377.695C488.673 377.414 488.784 377.144 488.983 376.945C489.182 376.746 489.451 376.634 489.732 376.634H492.868C493.149 376.634 493.419 376.746 493.617 376.945C493.816 377.144 493.927 377.414 493.927 377.695C493.927 377.976 493.816 378.246 493.617 378.445C493.419 378.644 493.149 378.756 492.868 378.756Z" fill="#262424"/>
<path d="M251.19 331.1C250.91 331.1 250.64 330.988 250.441 330.789C250.243 330.59 250.131 330.32 250.131 330.039V325.126C250.131 324.844 250.243 324.575 250.441 324.376C250.64 324.177 250.91 324.065 251.19 324.065C251.471 324.065 251.741 324.177 251.94 324.376C252.138 324.575 252.25 324.844 252.25 325.126V330.039C252.25 330.32 252.138 330.59 251.94 330.789C251.741 330.988 251.471 331.1 251.19 331.1Z" fill="#262424"/>
<path d="M258.589 333.595H253.682C253.401 333.595 253.132 333.483 252.933 333.284C252.734 333.085 252.623 332.815 252.623 332.534C252.623 332.253 252.734 331.983 252.933 331.784C253.132 331.585 253.401 331.473 253.682 331.473H258.589C258.87 331.473 259.14 331.585 259.338 331.784C259.537 331.983 259.649 332.253 259.649 332.534C259.649 332.815 259.537 333.085 259.338 333.284C259.14 333.483 258.87 333.595 258.589 333.595Z" fill="#262424"/>
<path d="M251.19 341.003C250.91 341.003 250.64 340.891 250.441 340.692C250.243 340.493 250.131 340.223 250.131 339.942V335.029C250.131 334.747 250.243 334.478 250.441 334.279C250.64 334.08 250.91 333.968 251.19 333.968C251.471 333.968 251.741 334.08 251.94 334.279C252.138 334.478 252.25 334.747 252.25 335.029V339.942C252.25 340.223 252.138 340.493 251.94 340.692C251.741 340.891 251.471 341.003 251.19 341.003Z" fill="#262424"/>
<path d="M248.695 333.595H243.792C243.511 333.595 243.241 333.483 243.043 333.284C242.844 333.085 242.732 332.815 242.732 332.534C242.732 332.253 242.844 331.983 243.043 331.784C243.241 331.585 243.511 331.473 243.792 331.473H248.699C248.838 331.474 248.976 331.501 249.104 331.555C249.232 331.608 249.349 331.687 249.447 331.785C249.545 331.884 249.623 332.001 249.676 332.13C249.729 332.259 249.756 332.397 249.756 332.536C249.756 332.675 249.728 332.813 249.675 332.942C249.621 333.07 249.543 333.187 249.444 333.285C249.346 333.384 249.229 333.462 249.1 333.515C248.972 333.568 248.834 333.595 248.695 333.595Z" fill="#262424"/>
<path d="M148.206 197.161C150.221 197.161 151.855 195.526 151.855 193.508C151.855 191.491 150.221 189.855 148.206 189.855C146.191 189.855 144.558 191.491 144.558 193.508C144.558 195.526 146.191 197.161 148.206 197.161Z" fill="#87BFC1"/>
<path d="M555.511 459.366C559.45 459.366 562.643 456.169 562.643 452.225C562.643 448.281 559.45 445.084 555.511 445.084C551.572 445.084 548.379 448.281 548.379 452.225C548.379 456.169 551.572 459.366 555.511 459.366Z" fill="#DD9144"/>
<path d="M313.541 470.609C316.82 470.609 319.478 467.948 319.478 464.665C319.478 461.382 316.82 458.721 313.541 458.721C310.262 458.721 307.604 461.382 307.604 464.665C307.604 467.948 310.262 470.609 313.541 470.609Z" fill="#DD9144"/>
</g>
</svg>
